# xmcd CD database file
#
# Track frame offsets:
#	150
#	27834
#	47597
#	74345
#	100978
#	117877
#	142382
#	165420
#	194250
#	215859
#	248630
#	277555
#
# Disc length: 4017 seconds
#
# Revision: 0
# Processed by: cddbd v1.5.2PL0 Copyright (c) Steve Scherf et al.
# Submitted via: CDex 1.70beta2
#
DISCID=ab0faf0c
DTITLE=Harry Allen - Soul Of My Life
DYEAR=2006
DGENRE=Jazz
TTITLE0=You Send Me
TTITLE1=I Just Called To Say I Love You
TTITLE2=You Make Me Feel Brand New
TTITLE3=You Are The Sunshine Of My Life
TTITLE4=Killing Me Softly With His Song
TTITLE5=I'm Not In Love
TTITLE6=Georgia On My Mind
TTITLE7=I Can't Stop Loving You
TTITLE8=I Say A Little Prayer
TTITLE9=That's Life
TTITLE10=Isn't She Lovely
TTITLE11=Smoke Gets In Your Eyes
EXTD=YEAR: 2006
EXTT0=
EXTT1=
EXTT2=
EXTT3=
EXTT4=
EXTT5=
EXTT6=
EXTT7=
EXTT8=
EXTT9=
EXTT10=
EXTT11=
PLAYORDER=
